<svg width="29" height="30" viewBox="0 0 29 30" fill="none" xmlns="http://www.w3.org/2000/svg">
<g clip-path="url(#clip0_535_3221)">
<path d="M24.0984 12.5004C24.0984 18.9069 18.9049 24.1004 12.4984 24.1004C6.09194 24.1004 0.898438 18.9069 0.898438 12.5004C0.898438 6.09389 6.09194 0.900391 12.4984 0.900391C18.9049 0.900391 24.0984 6.09389 24.0984 12.5004Z" stroke="black" stroke-width="1.8"/>
<path d="M5 11C5 7.68629 7.68629 5 11 5" stroke="black" stroke-width="1.36" stroke-linecap="round" stroke-linejoin="round"/>
<path d="M28.1316 25.7175L22.4747 20.0607C21.8889 19.4749 20.9392 19.4749 20.3534 20.0607C19.7676 20.6464 19.7676 21.5962 20.3534 22.182L26.0103 27.8388C26.596 28.4246 27.5458 28.4246 28.1316 27.8388C28.7174 27.253 28.7174 26.3033 28.1316 25.7175Z" fill="black"/>
</g>
<defs>
<clipPath id="clip0_535_3221">
<rect width="29" height="30" fill="white"/>
</clipPath>
</defs>
</svg>
