<svg width="31" height="31" viewBox="0 0 31 31" fill="none" xmlns="http://www.w3.org/2000/svg">
<g clip-path="url(#clip0_535_3246)">
<path d="M21 6.5C21 9.53757 18.5376 12 15.5 12C12.4624 12 10 9.53757 10 6.5C10 3.46243 12.4624 1 15.5 1C18.5376 1 21 3.46243 21 6.5Z" stroke="black" stroke-width="1.8"/>
<path d="M29.3941 19.6567C27.4912 25.7342 21.9764 30.1004 15.5012 30.1004C9.02597 30.1004 3.51118 25.7342 1.6083 19.6567C1.30104 18.6754 1.56743 17.7711 2.19592 17.0806C2.83879 16.3743 3.86251 15.9004 5.00117 15.9004H26.0012C27.1399 15.9004 28.1636 16.3743 28.8064 17.0806C29.4349 17.7711 29.7013 18.6754 29.3941 19.6567Z" stroke="black" stroke-width="1.8"/>
</g>
<defs>
<clipPath id="clip0_535_3246">
<rect width="31" height="31" fill="white"/>
</clipPath>
</defs>
</svg>
