<svg width="230" height="27" viewBox="0 0 230 27" fill="none" xmlns="http://www.w3.org/2000/svg">
<path d="M10.15 2.46035L4.13 2.67035L2.905 9.98535H0.595L1.19 0.60535H22.995L23.415 9.98535H21.21L20.055 2.67035L14 2.46035V24.5454L18.97 24.8954V26.6104H5.6V24.8954L10.15 24.5454V2.46035ZM29.3784 2.77535L26.1234 2.35535V0.60535H36.4134V2.35535L33.1584 2.77535V24.5454L36.4134 24.9304V26.6104H26.1584V24.8954L29.3784 24.5454V2.77535ZM42.8646 2.77535L39.8546 2.35535V0.60535H58.5796L58.9296 6.55535H56.6546L55.6046 2.67035L46.6096 2.42535V12.5754L52.9446 12.4704L53.5396 9.56535H55.3946V17.7554H53.5746L52.9446 14.7104L46.6096 14.5704V24.5454L52.0696 24.8954V26.6104H40.0646V24.8954L42.8646 24.5454V2.77535ZM64.5345 2.77535L61.5245 2.35535V0.60535H80.2495L80.5995 6.55535H78.3245L77.2745 2.67035L68.2795 2.42535V12.5754L74.6145 12.4704L75.2095 9.56535H77.0645V17.7554H75.2445L74.6145 14.7104L68.2795 14.5704V24.5454L73.7395 24.8954V26.6104H61.7345V24.8954L64.5345 24.5454V2.77535ZM91.8395 0.395351H95.6895L104.194 24.5454L106.364 24.8954V26.6104H97.1245V24.8954L100.029 24.5454L98.3845 19.3654H88.1645L86.5195 24.5454L89.5295 24.8954V26.6104H81.2345V24.8954L83.4045 24.5454L91.8395 0.395351ZM94.0445 5.99535L93.1695 2.91535L92.3295 6.06535L88.7945 17.3004H97.7195L94.0445 5.99535ZM110.473 2.77535L107.673 2.35535V0.60535H114.183L125.838 17.6854L127.798 21.3954V2.77535L124.753 2.35535V0.60535H133.013V2.35535L130.213 2.77535V26.6104H127.448L115.548 9.14535L112.853 4.52535V24.5454L116.178 24.8954V26.6104H107.673V24.8954L110.473 24.5104V2.77535ZM143.437 16.4954L135.562 2.81035L133.462 2.35535V0.60535H142.597V2.35535L139.832 2.77535L144.767 12.1554L145.887 14.8154L147.147 12.1554L151.802 2.77535L148.932 2.35535V0.60535H156.912V2.35535L154.637 2.77535L147.322 16.4604V24.5104L151.242 24.8954V26.6104H139.622V24.8954L143.437 24.5454V16.4954ZM182.271 14.2904L179.436 14.6754C179.46 16.262 179.226 17.767 178.736 19.1904C178.246 20.6137 177.57 21.7804 176.706 22.6904C177.5 23.4137 178.235 23.9504 178.911 24.3004C179.588 24.6504 180.37 24.8487 181.256 24.8954V26.4354C181.046 26.552 180.661 26.6454 180.101 26.7154C179.565 26.7854 179.11 26.8204 178.736 26.8204C177.92 26.8204 177.173 26.6687 176.496 26.3654C175.843 26.062 175.085 25.5487 174.221 24.8254C173.335 25.5487 172.32 26.0854 171.176 26.4354C170.033 26.762 168.901 26.9254 167.781 26.9254C164.935 26.9254 162.671 26.3187 160.991 25.1054C159.335 23.892 158.506 22.212 158.506 20.0654C158.506 18.572 158.985 17.2887 159.941 16.2154C160.921 15.142 162.193 14.2787 163.756 13.6254C161.726 11.0587 160.711 8.65535 160.711 6.41535C160.711 5.31868 161.015 4.30368 161.621 3.37035C162.228 2.43702 163.056 1.69035 164.106 1.13035C165.18 0.57035 166.37 0.29035 167.676 0.29035C169.03 0.29035 170.173 0.523683 171.106 0.99035C172.063 1.45702 172.775 2.06368 173.241 2.81035C173.708 3.55702 173.941 4.32702 173.941 5.12035C173.941 6.45035 173.696 7.58202 173.206 8.51535C172.716 9.44868 172.075 10.242 171.281 10.8954C170.488 11.5487 169.368 12.342 167.921 13.2754C168.738 14.2554 169.8 15.4804 171.106 16.9504C172.436 18.4204 173.521 19.587 174.361 20.4504L175.236 21.2904C175.82 20.5437 176.24 19.6804 176.496 18.7004C176.753 17.697 176.881 16.682 176.881 15.6554C176.881 15.212 176.87 14.8854 176.846 14.6754L174.011 14.2904V12.3654H182.271V14.2904ZM164.176 5.96035C164.176 7.15035 164.421 8.22368 164.911 9.18035C165.425 10.1137 166.078 11.0354 166.871 11.9454C168.318 10.7787 169.333 9.72868 169.916 8.79535C170.5 7.86202 170.791 6.69535 170.791 5.29535C170.791 4.43202 170.558 3.65035 170.091 2.95035C169.625 2.22702 168.808 1.86535 167.641 1.86535C166.661 1.86535 165.833 2.25035 165.156 3.02035C164.503 3.79035 164.176 4.77035 164.176 5.96035ZM168.061 24.9654C168.878 24.9654 169.695 24.8487 170.511 24.6154C171.328 24.3587 172.051 23.997 172.681 23.5304C171.748 22.6904 170.721 21.6637 169.601 20.4504C168.505 19.2137 167.128 17.627 165.471 15.6904L164.876 14.9904C162.893 16.5304 161.901 18.1404 161.901 19.8204C161.901 21.3137 162.438 22.5504 163.511 23.5304C164.585 24.487 166.101 24.9654 168.061 24.9654ZM196.091 26.9954C193.525 26.9954 191.331 26.447 189.511 25.3504C187.715 24.2304 186.35 22.667 185.416 20.6604C184.483 18.6537 184.016 16.297 184.016 13.5904C184.016 10.977 184.565 8.66702 185.661 6.66035C186.758 4.65368 188.263 3.10202 190.176 2.00535C192.09 0.88535 194.236 0.32535 196.616 0.32535C198.413 0.32535 200.571 0.60535 203.091 1.16535L204.246 1.37535L203.896 7.67535H201.551L200.676 3.23035C200.35 2.95035 199.778 2.71702 198.961 2.53035C198.168 2.32035 197.188 2.21535 196.021 2.21535C194.528 2.21535 193.198 2.64702 192.031 3.51035C190.865 4.35035 189.943 5.59868 189.266 7.25535C188.613 8.91202 188.286 10.8954 188.286 13.2054C188.286 15.3987 188.578 17.3937 189.161 19.1904C189.745 20.987 190.631 22.422 191.821 23.4954C193.011 24.5454 194.481 25.0704 196.231 25.0704C197.468 25.0704 198.413 24.9654 199.066 24.7554C199.743 24.5454 200.315 24.242 200.781 23.8454L202.251 20.4154L204.456 20.6954L203.616 25.6654C203.126 25.6887 202.403 25.852 201.446 26.1554C200.606 26.412 199.79 26.6104 198.996 26.7504C198.226 26.9137 197.258 26.9954 196.091 26.9954ZM217.943 26.9954C215.563 26.9954 213.544 26.447 211.888 25.3504C210.254 24.2537 209.018 22.7137 208.178 20.7304C207.338 18.7237 206.918 16.402 206.918 13.7654C206.918 11.082 207.419 8.72535 208.423 6.69535C209.449 4.66535 210.849 3.10202 212.623 2.00535C214.396 0.88535 216.391 0.32535 218.608 0.32535C222.248 0.32535 225.024 1.48035 226.938 3.79035C228.874 6.07702 229.843 9.25035 229.843 13.3104C229.843 16.0404 229.318 18.4437 228.268 20.5204C227.241 22.5737 225.818 24.172 223.998 25.3154C222.201 26.4354 220.183 26.9954 217.943 26.9954ZM218.398 2.14535C216.134 2.14535 214.349 3.13702 213.043 5.12035C211.736 7.08035 211.083 9.96202 211.083 13.7654C211.083 17.2654 211.713 20.042 212.973 22.0954C214.256 24.1254 216.041 25.1404 218.328 25.1404C220.568 25.1404 222.341 24.1254 223.648 22.0954C224.978 20.0654 225.643 17.1487 225.643 13.3454C225.643 9.82202 225.013 7.08035 223.753 5.12035C222.493 3.13702 220.708 2.14535 218.398 2.14535Z" fill="black"/>
</svg>
